<?xml version="1.0" encoding="UTF-8"?><svg id="b" xmlns="http://www.w3.org/2000/svg" viewBox="0 0 72.6 72.6"><g id="c"><circle cx="36.3" cy="36.3" r="36" fill="#fff" stroke-width="0"/><path d="m36.3,1.5c19.22,0,34.8,15.58,34.8,34.8s-15.58,34.8-34.8,34.8S1.5,55.52,1.5,36.3,17.08,1.5,36.3,1.5m0-1.5C16.28,0,0,16.28,0,36.3s16.28,36.3,36.3,36.3,36.3-16.28,36.3-36.3S56.32,0,36.3,0h0Z" fill="#46c795" stroke-width="0"/><path d="m33.19,69.13h6.2s.02,0,.02,0c.33,0,.63.18.8.46h0s.66,1.16.66,1.16c.16-.02.33-.04.49-.07l-.76-1.32v-.02c-.15-.28-.15-.62,0-.9v-.02s3.13-5.4,3.13-5.4v-.02c.18-.25.44-.41.74-.44h.04s6.3,0,6.3,0h.04c.3.03.57.2.73.45h0s1.99,3.45,1.99,3.45c.13-.08.26-.15.39-.23l-1.96-3.4c-.17-.3-.18-.67,0-.98l3.09-5.36c.16-.29.46-.47.78-.49h.03s6.26,0,6.26,0h.03c.32.02.61.2.78.47l.71,1.23c.1-.13.21-.27.31-.4l-.6-1.04v-.02c-.17-.29-.17-.63-.01-.92h0s3.1-5.39,3.1-5.39c.17-.3.5-.48.84-.48h1.16c.06-.15.12-.3.18-.46h-1.34c-.35,0-.68-.19-.85-.49l-3.1-5.38c-.16-.3-.16-.65,0-.95l3.1-5.37c.16-.28.46-.47.78-.49h.03s3.77,0,3.77,0c0-.15,0-.31,0-.46h-3.81c-.3-.03-.58-.2-.74-.46h0s-3.1-5.39-3.1-5.39c-.18-.3-.18-.68,0-.98l3.1-5.37c.13-.22.35-.38.59-.44.1.02.2.04.31.04h1.12c-.07-.18-.14-.35-.22-.53h-.96c-.08,0-.15,0-.23.02-.23-.07-.44-.23-.56-.45l-3.1-5.37v-.02c-.16-.3-.16-.65.01-.94l.45-.77c-.12-.16-.25-.32-.37-.48l-.56.96c-.18.29-.5.47-.84.47h-6.19c-.28,0-.55-.12-.74-.34l-.05-.06-3.46-5.91,2.07-3.59c-.13-.08-.26-.15-.39-.22l-1.77,3.06c-.17.3-.5.49-.85.49h-6.23c-.33,0-.63-.18-.81-.46h0s-3.12-5.41-3.12-5.41v-.02c-.15-.28-.15-.62,0-.9v-.02s.52-.88.52-.88c-.16-.02-.32-.05-.48-.07l-.41.71v.02c-.19.28-.49.45-.82.46h-6.22c-.35,0-.68-.19-.84-.49l-.41-.71c-.17.02-.33.04-.49.07l.5.86c.18.3.18.68,0,.98l-3.09,5.35c-.17.3-.48.49-.83.5h-6.22s-.02,0-.02,0c-.33,0-.63-.18-.81-.46h0s-1.77-3.08-1.77-3.08c-.13.07-.26.15-.39.22l1.78,3.09v.02c.15.28.15.61.01.89v.02s-3.13,5.4-3.13,5.4c-.18.29-.5.47-.84.47h-6.2c-.3,0-.6-.14-.78-.39l-.03-.04-.58-1c-.1.13-.2.26-.3.39l.46.79c.17.3.17.67,0,.97l-3.1,5.36c-.17.3-.48.48-.82.49h-.99c-.06.15-.13.31-.19.46h1.16c.29,0,.55.12.74.34l.05.06,3.15,5.45c.18.31.18.68,0,.98l-3.11,5.38c-.16.25-.42.42-.71.46h-.05s-3.79,0-3.79,0c0,.15,0,.31,0,.46h3.77c.33.01.63.19.8.48l3.1,5.37c.17.3.18.67,0,.98l-3.1,5.37c-.18.29-.5.48-.84.48h-1.34c.06.15.12.3.18.46h1.19c.33.01.63.19.8.47l3.11,5.38.04.08c.14.27.14.59,0,.86v.02s-.63,1.08-.63,1.08c.1.13.2.26.3.39l.7-1.21c.16-.27.43-.45.75-.48h.04s6.29,0,6.29,0h.03c.33.02.62.2.78.49l3.11,5.39v.02c.15.28.15.61.01.89v.02s-1.99,3.42-1.99,3.42c.13.08.26.16.39.23l1.98-3.42c.16-.27.44-.44.75-.47h.04s6.26,0,6.26,0c.33,0,.65.18.82.46l3.11,5.38c.18.3.18.68,0,.98l-.75,1.29c.16.02.32.05.48.07l.65-1.13c.17-.3.5-.49.84-.49Zm21.52-12.88l-3.09,5.36c-.16.28-.45.47-.78.49h-.03s-6.24,0-6.24,0h-.03c-.34-.01-.65-.2-.81-.49l-3.11-5.38v-.02c-.15-.28-.15-.61-.01-.89v-.02s3.12-5.39,3.12-5.39v-.02c.19-.28.49-.45.82-.46h.01s6.21,0,6.21,0c.25,0,.49.1.68.27l.09.08,3.17,5.49c.18.3.18.68,0,.98Zm.06-13.98c.1.24.1.51,0,.75l-.02.05-3.12,5.4c-.17.31-.49.5-.85.5h-6.24c-.34-.01-.65-.2-.82-.49l-3.11-5.39v-.03c-.15-.27-.15-.6-.01-.87v-.03s3.14-5.4,3.14-5.4c.16-.28.45-.45.78-.47h.03s6.24,0,6.24,0h.03c.32.01.61.18.78.44v.02s3.09,5.33,3.09,5.33l.03.03.04.08.03.05v.02h0Zm-14.54-.36v.02c-.19.28-.49.45-.82.46h-.01s-6.21,0-6.21,0c-.35,0-.67-.19-.84-.49l-.02-.04-3.07-5.31c-.18-.3-.18-.68,0-.98l3.09-5.36c.16-.27.43-.45.75-.49h.04s6.3,0,6.3,0h.04c.31.03.59.21.75.47l3.12,5.4v.02c.16.29.16.63,0,.92h0s-3.1,5.39-3.1,5.39Zm10.63-6.08h-.04s-6.29,0-6.29,0h-.03c-.33-.02-.62-.2-.78-.49l-3.11-5.39v-.02c-.15-.28-.15-.61-.01-.89v-.02s3.13-5.4,3.13-5.4c.18-.29.5-.48.84-.48h6.2c.33,0,.63.16.81.43v.02s3.14,5.39,3.14,5.39c.18.31.18.68,0,.98l-3.1,5.37c-.16.27-.44.45-.75.48Zm-7.51-12.45v.02s-3.13,5.41-3.13,5.41l-.02.03c-.17.24-.43.4-.72.43h-.04s-6.26,0-6.26,0c-.25,0-.48-.09-.66-.26h0s-3.26-5.58-3.26-5.58c-.18-.3-.18-.68,0-.98l.07-.11,3-5.19s0,0,0-.01l.03-.05c.17-.29.48-.47.82-.48h6.26c.33.02.62.2.79.48l3.1,5.37s0,0,0,0v.02s.02.02.02.02c.15.28.15.62,0,.91Zm-11.09,6.09l-3.4,5.88c-.16.27-.44.45-.75.48h-.04s-6.29,0-6.29,0h-.04c-.3-.03-.58-.2-.74-.46h0s-3.11-5.39-3.11-5.39v-.02c-.17-.29-.17-.64-.01-.93h0s3.1-5.38,3.1-5.38c.17-.3.5-.49.85-.49h6.19c.28,0,.54.12.73.32l.06.07,3.46,5.93Zm-10.5,6.82h.03s6.24,0,6.24,0h.03c.33.01.63.19.8.48l3.1,5.37c.18.3.18.68,0,.98l-3.09,5.36c-.17.31-.5.5-.85.5h-6.22c-.34-.01-.65-.2-.82-.49l-3.11-5.39v-.03c-.15-.27-.15-.6-.01-.87v-.03s3.12-5.38,3.12-5.38c.16-.29.45-.47.79-.49Zm7.49,12.44l3.1-5.37c.17-.31.49-.5.85-.5h6.24c.34.02.63.21.8.49l3.11,5.38v.02c.16.28.16.62,0,.91v.02s-3.13,5.4-3.13,5.4l-.02.02c-.16.23-.41.39-.69.42h-.05s-6.27,0-6.27,0h-.03c-.33-.01-.63-.19-.8-.47h0s-.03-.06-.03-.06l-3.08-5.33c-.16-.29-.16-.65,0-.94Zm36.83,0c.16.3.16.65,0,.95l-3.1,5.39c-.15.26-.42.43-.72.47h-.05s-6.27,0-6.27,0h-.03c-.33-.01-.63-.19-.8-.48l-3.1-5.36-.04-.07c-.14-.27-.14-.6,0-.87v-.02s3.12-5.39,3.12-5.39c.17-.3.5-.49.85-.49h6.19c.35,0,.67.19.85.49l3.1,5.38Zm0-13.14v.02c.17.29.17.64.01.92h0s-3.11,5.39-3.11,5.39c-.18.29-.5.47-.84.47h-6.19c-.28,0-.54-.12-.73-.32l-.06-.06-3.16-5.47c-.17-.3-.17-.66,0-.96l3.1-5.36c.16-.29.46-.47.78-.49h.03s6.27,0,6.27,0h.03c.32.02.61.2.77.47l3.1,5.38Zm-10.17-19h6.23s.01,0,.02,0h0c.34,0,.66.2.83.49l3.11,5.37v.02c.16.3.15.65-.01.94l-3.1,5.37c-.16.27-.44.44-.75.47h-.04s-6.26,0-6.26,0h-.03c-.32-.01-.62-.18-.79-.46l-3.12-5.4c-.17-.3-.17-.67,0-.97l3.1-5.36c.17-.29.47-.47.81-.49Zm-11.4-6.57h.02s6.22,0,6.22,0h.03c.24,0,.47.11.65.27h0s3.28,5.57,3.28,5.57l.03.05v.02c.13.25.14.54.04.8-.03.04-.06.08-.08.13l-3.06,5.3s-.03.07-.05.1l-.03.06c-.18.24-.47.39-.78.39h-6.28c-.31-.02-.59-.18-.76-.44-.01-.02-.03-.05-.04-.07l-3.08-5.34s-.04-.06-.06-.09l-.23-.4,3.38-5.85c.16-.29.46-.48.8-.5Zm-12.17-6.07c.17-.3.5-.49.84-.49h6.2s.02,0,.02,0c.33,0,.63.18.8.46h0s3.1,5.39,3.1,5.39v.02c.17.29.17.63.01.92h0s-3.11,5.4-3.11,5.4c-.18.29-.5.47-.84.47h-6.19c-.35,0-.67-.19-.84-.49l-.02-.04-3.37-5.79,3.39-5.87Zm-14.48,11.96v-.02s3.11-5.37,3.11-5.37c.16-.29.46-.48.8-.5h.02s6.22,0,6.22,0c.25,0,.49.1.67.27h0s3.26,5.58,3.26,5.58c.18.3.18.68,0,.98l-3.09,5.35c-.17.3-.48.49-.83.5h-6.24s-.02,0-.02,0c-.33-.02-.63-.2-.79-.49l-3.11-5.38v-.02c-.16-.28-.16-.62,0-.91Zm-11.35,7.53h-.01s0-.03,0-.03l-.05-.08v-.04c-.1-.24-.09-.5,0-.74v-.04s.04-.04.05-.06l3.06-5.31s0,0,0-.01l.03-.05c.17-.29.48-.47.82-.48h6.27c.3.02.57.17.74.41h0s3.14,5.44,3.14,5.44c.01.02.03.04.04.06l.02.04c.12.29.1.6-.06.87l-3.11,5.39-.02.03c-.17.25-.45.4-.75.42h-.03s-6.28,0-6.28,0h-.04c-.27-.03-.51-.17-.68-.38l-.04-.05-3.12-5.41Zm-.02,13.11c-.17-.3-.17-.66,0-.96l3.1-5.37c.16-.27.44-.45.75-.48h.04s6.28,0,6.28,0h.03c.33.02.62.2.78.49l3.11,5.39v.03c.15.28.15.6,0,.88v.02s-3.12,5.39-3.12,5.39v.02c-.19.28-.49.45-.82.46h-.01s-6.21,0-6.21,0c-.33,0-.63-.16-.81-.43v-.02s-3.14-5.4-3.14-5.4Zm10.97,18.54l-.02.03c-.17.25-.45.4-.75.42h-.03s-6.24,0-6.24,0h-.03c-.24,0-.46-.1-.64-.27l-.09-.08-3.18-5.49c-.18-.3-.18-.68,0-.98l3.09-5.35c.17-.31.49-.5.85-.5h6.26c.33.02.63.21.8.49l3.1,5.39v.03c.15.28.15.59.01.87v.03s-3.14,5.42-3.14,5.42Zm10.61,7.02h-.03s-6.27,0-6.27,0h-.03c-.32-.02-.61-.2-.77-.47l-3.11-5.38v-.02c-.17-.29-.17-.64-.01-.93h0s3.11-5.41,3.11-5.41v-.02c.18-.26.47-.43.78-.45h.02s6.22,0,6.22,0h.03c.33.01.63.19.8.47l3.11,5.38c.18.3.18.68,0,.98l-3.09,5.36c-.16.29-.45.47-.78.49Zm1.18.72c-.18-.3-.18-.68,0-.98l3.09-5.36c.16-.27.43-.45.75-.48h.04s6.29,0,6.29,0h.03c.32.02.61.2.78.47l3.11,5.38v.02c.17.29.17.64.01.93h0s-3.1,5.39-3.1,5.39v.02c-.19.28-.49.45-.82.46h-6.22c-.35,0-.68-.19-.84-.49l-3.09-5.36Z" fill="#46c795" stroke-width="0"/><path d="m24.15,33c0,.1,0,.19-.02.26-.01.08-.03.14-.06.19-.03.05-.06.09-.09.11-.04.02-.08.03-.12.03h-5.15c-.13,0-.25-.04-.36-.13-.11-.09-.17-.24-.17-.45v-9.58c0-.22.06-.37.17-.45.11-.09.23-.13.36-.13h5.1s.08.01.12.03.07.06.09.11c.02.05.04.11.05.19.01.07.02.17.02.28,0,.1,0,.19-.02.26-.01.08-.03.14-.05.18-.02.05-.05.08-.09.1s-.08.03-.12.03h-4.2v3.37h3.6s.08.01.12.04c.04.02.07.06.09.1.02.04.04.1.05.18.01.08.02.17.02.27s0,.19-.02.26c-.01.07-.03.13-.05.17-.03.04-.06.08-.09.1-.04.02-.08.03-.12.03h-3.6v3.84h4.26s.08.01.12.03c.04.02.07.06.09.1.03.05.05.11.06.18.01.07.02.17.02.28Z" stroke-width="0"/><path d="m32.04,25.9s0,.05,0,.07c0,.02,0,.05-.01.08,0,.03-.01.06-.02.09,0,.03-.02.07-.03.11l-2.55,7.1c-.02.06-.05.11-.09.15-.04.04-.09.07-.16.09-.07.02-.16.04-.27.05-.11,0-.25.01-.42.01s-.3,0-.42-.02c-.11-.01-.2-.03-.27-.05s-.12-.05-.16-.09c-.04-.04-.07-.09-.09-.14l-2.54-7.1c-.02-.07-.04-.12-.05-.17-.01-.05-.02-.09-.03-.11,0-.02,0-.05,0-.06,0-.04.01-.08.03-.12.02-.03.06-.06.11-.08.05-.02.12-.03.21-.04s.19,0,.32,0c.16,0,.29,0,.39.01.1,0,.17.02.22.05s.09.05.12.08c.03.03.05.07.07.12l2.11,6.16.03.1.03-.1,2.08-6.16s.03-.09.06-.12c.03-.03.07-.06.12-.08s.12-.04.22-.05c.09,0,.21-.01.36-.01.13,0,.23,0,.32,0s.15.02.2.04c.05.02.08.05.1.08.02.03.03.07.03.11Z" stroke-width="0"/><path d="m39.8,29.33c0,.22-.05.37-.16.46-.11.09-.23.14-.37.14h-4.92c0,.42.04.79.12,1.12.08.33.22.62.42.85.2.24.45.42.76.55s.69.19,1.14.19c.36,0,.67-.03.95-.09.28-.06.52-.12.72-.19s.37-.14.5-.19c.13-.06.23-.09.3-.09.04,0,.07,0,.1.03.03.02.05.05.07.09s.03.09.04.16c0,.07.01.15.01.25,0,.07,0,.13,0,.19,0,.05-.01.1-.02.14,0,.04-.02.08-.04.11-.02.03-.04.06-.07.1-.03.03-.12.08-.27.15-.15.07-.34.14-.58.2-.24.07-.51.13-.83.18-.31.05-.65.08-1,.08-.61,0-1.15-.09-1.62-.26-.46-.17-.85-.43-1.17-.76s-.55-.76-.71-1.27c-.16-.51-.24-1.1-.24-1.78s.08-1.22.25-1.73c.17-.51.41-.95.72-1.3.31-.36.69-.63,1.13-.82.44-.19.94-.29,1.49-.29.59,0,1.09.09,1.5.28s.75.44,1.02.76c.27.32.46.69.58,1.12.12.43.19.89.19,1.37v.25Zm-1.38-.41c.02-.72-.14-1.28-.48-1.69s-.84-.61-1.5-.61c-.34,0-.64.06-.89.19s-.47.3-.64.51-.31.46-.4.73c-.09.28-.15.57-.16.88h4.08Z" stroke-width="0"/><path d="m48.32,33.38s-.01.08-.03.11c-.02.03-.06.06-.11.08s-.12.04-.21.05c-.09.01-.2.02-.33.02s-.25,0-.34-.02c-.09-.01-.16-.03-.21-.05s-.09-.05-.11-.08c-.02-.03-.03-.07-.03-.11v-4.37c0-.43-.03-.77-.1-1.03s-.16-.48-.29-.67c-.13-.19-.29-.33-.49-.43s-.44-.15-.7-.15c-.34,0-.69.12-1.03.37-.34.24-.7.6-1.08,1.07v5.22s-.01.08-.03.11c-.02.03-.06.06-.11.08s-.12.04-.21.05c-.09.01-.2.02-.34.02s-.24,0-.33-.02c-.09-.01-.16-.03-.21-.05-.05-.02-.09-.05-.11-.08-.02-.03-.03-.07-.03-.11v-7.47s0-.08.03-.11c.02-.03.05-.06.1-.08.05-.03.11-.04.19-.05.08,0,.18-.01.31-.01.12,0,.22,0,.3.01.08,0,.14.02.19.05.04.02.08.05.1.08.02.03.03.07.03.11v.99c.42-.47.84-.81,1.26-1.03.42-.22.84-.33,1.27-.33.5,0,.92.08,1.26.25.34.17.62.39.83.68.21.28.36.61.45.99.09.38.14.83.14,1.37v4.56Z" stroke-width="0"/><path d="m54.55,32.84c0,.16-.01.29-.03.38-.02.09-.06.16-.1.21-.04.04-.11.09-.2.12-.09.04-.19.07-.3.1-.11.03-.23.05-.36.06-.13.02-.25.02-.38.02-.39,0-.72-.05-1-.15-.28-.1-.5-.26-.68-.46-.18-.21-.31-.47-.39-.79-.08-.32-.12-.69-.12-1.12v-4.37h-1.05c-.08,0-.15-.04-.2-.13s-.07-.23-.07-.43c0-.1,0-.19.02-.27s.03-.13.05-.18c.02-.05.05-.08.09-.1.04-.02.08-.03.12-.03h1.04v-1.78s0-.07.03-.11.06-.06.11-.09c.05-.03.12-.04.21-.05.09-.01.2-.02.33-.02s.25,0,.34.02c.09.01.16.03.21.05.05.02.09.05.11.09.02.03.03.07.03.11v1.78h1.92s.08,0,.12.03c.03.02.06.05.09.1.03.05.04.11.05.18.01.07.02.16.02.27,0,.2-.03.34-.08.43s-.12.13-.2.13h-1.92v4.17c0,.51.08.9.23,1.17.15.26.42.39.82.39.13,0,.24-.01.34-.04.1-.03.19-.05.27-.08.08-.03.14-.05.2-.08.06-.02.11-.04.15-.04.03,0,.05,0,.08.02.02.01.04.04.06.08.01.04.03.09.04.16.01.07.02.15.02.25Z" stroke-width="0"/><path d="m29.73,49.38s-.01.08-.03.12c-.02.03-.06.06-.12.08-.06.02-.13.04-.22.05-.09.01-.2.02-.35.02-.13,0-.24,0-.34-.02-.09-.01-.17-.03-.22-.05-.05-.02-.09-.05-.12-.08-.02-.03-.03-.07-.03-.12v-9.35h-.02l-3.79,9.4s-.04.07-.07.1-.07.05-.13.07c-.06.02-.13.03-.21.04-.08,0-.18.01-.29.01s-.22,0-.3-.02-.15-.03-.21-.05c-.06-.02-.1-.04-.13-.07s-.05-.06-.06-.09l-3.62-9.4h0v9.35s-.01.08-.03.12c-.02.03-.06.06-.12.08-.06.02-.13.04-.22.05-.09.01-.21.02-.35.02s-.25,0-.34-.02c-.09-.01-.16-.03-.22-.05-.05-.02-.09-.05-.11-.08-.02-.03-.03-.07-.03-.12v-9.88c0-.23.06-.4.19-.5.12-.1.26-.15.41-.15h.88c.18,0,.34.02.47.05.13.03.25.09.35.16s.19.16.25.27.13.24.18.39l3.07,7.78h.04l3.2-7.75c.06-.17.13-.31.2-.42.07-.12.15-.21.24-.28.09-.07.18-.12.29-.15.11-.03.23-.05.37-.05h.92c.08,0,.16.01.24.04.08.03.14.06.19.12.05.05.1.12.13.2.03.08.05.18.05.29v9.88Z" stroke-width="0"/><path d="m38.81,45.33c0,.22-.05.37-.16.46-.11.09-.23.14-.37.14h-4.92c0,.42.04.79.12,1.12.08.33.22.62.42.85.2.24.45.42.76.55s.69.19,1.14.19c.36,0,.67-.03.95-.09.28-.06.52-.12.72-.19s.37-.14.5-.19c.13-.06.23-.09.3-.09.04,0,.07,0,.1.03.03.02.05.05.07.09s.03.09.04.16c0,.07.01.15.01.25,0,.07,0,.13,0,.19,0,.05-.01.1-.02.14,0,.04-.02.08-.04.11-.02.03-.04.06-.07.1-.03.03-.12.08-.27.15-.15.07-.34.14-.58.2-.24.07-.51.13-.83.18-.31.05-.65.08-1,.08-.61,0-1.15-.09-1.62-.26-.46-.17-.85-.43-1.17-.76s-.55-.76-.71-1.27c-.16-.51-.24-1.1-.24-1.78s.08-1.22.25-1.73c.17-.51.41-.95.72-1.3.31-.36.69-.63,1.13-.82.44-.19.94-.29,1.49-.29.59,0,1.09.09,1.5.28s.75.44,1.02.76c.27.32.46.69.58,1.12.12.43.19.89.19,1.37v.25Zm-1.38-.41c.02-.72-.14-1.28-.48-1.69s-.84-.61-1.5-.61c-.34,0-.64.06-.89.19s-.47.3-.64.51-.31.46-.4.73c-.09.28-.15.57-.16.88h4.08Z" stroke-width="0"/><path d="m45.58,47.35c0,.38-.07.72-.21,1.02-.14.3-.34.55-.6.76-.26.2-.57.36-.93.46-.36.1-.76.16-1.19.16-.27,0-.52-.02-.76-.06-.24-.04-.46-.09-.65-.16-.19-.06-.35-.13-.49-.2-.13-.07-.23-.13-.29-.19-.06-.06-.11-.13-.13-.23-.03-.1-.04-.24-.04-.41,0-.1,0-.19.02-.27.01-.07.03-.13.04-.17s.04-.08.07-.1c.03-.02.07-.03.1-.03.06,0,.15.04.27.11.12.08.27.16.44.25.17.09.38.17.62.25.24.07.51.11.82.11.23,0,.44-.02.63-.07.19-.05.35-.12.49-.22.14-.1.25-.22.32-.37.07-.15.11-.33.11-.53s-.05-.39-.16-.53c-.11-.14-.25-.27-.43-.38-.18-.11-.38-.21-.6-.29-.22-.09-.45-.18-.68-.27-.24-.09-.46-.2-.69-.32-.22-.12-.42-.26-.6-.44-.18-.17-.32-.38-.43-.61-.11-.24-.16-.52-.16-.85,0-.29.06-.57.17-.84.11-.27.28-.5.51-.71.23-.2.51-.36.85-.49.34-.12.74-.18,1.19-.18.2,0,.4.02.6.05s.38.07.54.12c.16.05.3.1.41.16.11.06.2.11.26.15.06.04.1.08.12.12s.03.07.04.11c0,.04.02.09.02.15,0,.06.01.14.01.22,0,.09,0,.18-.01.25,0,.07-.02.13-.04.17-.02.04-.04.08-.07.1-.03.02-.06.03-.09.03-.05,0-.12-.03-.22-.09-.09-.06-.22-.13-.37-.2-.15-.07-.33-.13-.53-.19s-.43-.09-.69-.09c-.23,0-.44.03-.61.08-.18.05-.32.13-.44.22-.11.1-.2.21-.26.34-.06.13-.09.28-.09.43,0,.22.06.4.17.54.11.15.25.27.43.39.18.11.38.21.61.3.23.09.46.18.69.27.23.09.47.2.7.32.23.12.43.26.61.42.18.17.32.37.43.6.11.23.16.51.16.83Z" stroke-width="0"/><path d="m53.97,49.38s-.01.08-.03.11c-.02.03-.06.06-.11.08s-.12.04-.21.05c-.09.01-.2.02-.33.02s-.25,0-.34-.02c-.09-.01-.16-.03-.21-.05s-.09-.05-.11-.08c-.02-.03-.03-.07-.03-.11v-4.37c0-.43-.03-.77-.1-1.03s-.16-.48-.29-.67c-.13-.19-.29-.33-.49-.43-.2-.1-.44-.15-.7-.15-.34,0-.69.12-1.03.37-.34.24-.7.6-1.08,1.07v5.22s-.01.08-.03.11c-.02.03-.06.06-.11.08s-.12.04-.21.05c-.09.01-.2.02-.34.02s-.24,0-.33-.02c-.09-.01-.16-.03-.21-.05s-.09-.05-.11-.08c-.02-.03-.03-.07-.03-.11v-11.09s0-.08.03-.12c.02-.03.06-.06.11-.08s.12-.04.21-.05c.09-.01.2-.02.33-.02s.25,0,.34.02c.09.01.16.03.21.05s.09.05.11.08c.02.03.03.07.03.12v4.47c.39-.42.79-.72,1.19-.93.4-.2.8-.3,1.2-.3.5,0,.92.08,1.26.25.34.17.62.39.83.68.21.28.36.61.45.99.09.38.14.84.14,1.37v4.55Z" stroke-width="0"/></g></svg>