<?xml version="1.0" encoding="UTF-8"?><svg id="b" xmlns="http://www.w3.org/2000/svg" viewBox="0 0 72 72"><g id="c"><circle cx="36" cy="36" r="36" fill="#46c795" stroke-width="0"/><path d="m61.37,28.2h-7.47v-7.99c1.8-.59,3.1-2.26,3.1-4.26,0-2.49-2.01-4.5-4.5-4.5s-4.5,2.01-4.5,4.5c0,2.07,1.4,3.79,3.3,4.32v7.93h-14.2v-15.26c1.85-.56,3.2-2.26,3.2-4.29,0-2.49-2.01-4.5-4.5-4.5s-4.5,2.01-4.5,4.5c0,2.03,1.35,3.73,3.2,4.29v15.26h-14.1v-7.96c1.85-.56,3.2-2.26,3.2-4.29,0-2.49-2.01-4.5-4.5-4.5s-4.5,2.01-4.5,4.5c0,2.03,1.35,3.73,3.2,4.29v7.96h-7.05c-2.42,0-4.39,1.96-4.39,4.39v9.23c0,2.42,1.96,4.39,4.39,4.39h7.05v5.56c-1.85.56-3.2,2.26-3.2,4.29,0,2.49,2.01,4.5,4.5,4.5s4.5-2.01,4.5-4.5c0-2.03-1.35-3.73-3.2-4.29v-5.56h14.1v12.86c-1.85.56-3.2,2.26-3.2,4.29,0,2.49,2.01,4.5,4.5,4.5s4.5-2.01,4.5-4.5c0-2.03-1.35-3.73-3.2-4.29v-12.86h14.2v5.53c-1.9.53-3.3,2.25-3.3,4.32,0,2.49,2.01,4.5,4.5,4.5s4.5-2.01,4.5-4.5c0-1.99-1.3-3.66-3.1-4.26v-5.59h7.47c2.42,0,4.39-1.96,4.39-4.39v-9.23c0-2.42-1.96-4.39-4.39-4.39Z" fill="#fff" stroke-width="0"/></g></svg>